<?xml version="1.0" encoding="UTF-8" standalone="no"?>
<!-- Created with Inkscape (http://www.inkscape.org/) -->

<svg
   width="64"
   height="16"
   viewBox="0 0 64 16"
   version="1.1"
   id="svg1"
   xmlns:xlink="http://www.w3.org/1999/xlink"
   xmlns="http://www.w3.org/2000/svg"
   xmlns:svg="http://www.w3.org/2000/svg">
  <defs
     id="defs1">
    <linearGradient
       id="linearGradient18">
      <stop
         style="stop-color:#3a86ff;stop-opacity:1;"
         offset="0"
         id="stop18" />
      <stop
         style="stop-color:#030e33;stop-opacity:1;"
         offset="1"
         id="stop19" />
    </linearGradient>
    <linearGradient
       xlink:href="#linearGradient18"
       id="linearGradient19"
       x1="4"
       y1="8"
       x2="60"
       y2="8"
       gradientUnits="userSpaceOnUse" />
  </defs>
  <g
     id="layer1">
    <text
       xml:space="preserve"
       style="font-weight:900;font-size:7.97423px;line-height:1.5;font-family:'Noto Sans JP';-inkscape-font-specification:'Noto Sans JP Heavy';text-align:center;letter-spacing:0px;text-orientation:upright;text-anchor:middle;fill:none;stroke:#000000;stroke-width:1.49517;stroke-linecap:round;stroke-linejoin:round"
       x="-8.8423576"
       y="12.984336"
       id="text7"
       transform="scale(1.0055203,0.99451)"><tspan
         id="tspan7"
         x="-8.8423576"
         y="12.984336"
         style="text-align:start;text-anchor:start;stroke-width:1.49517" /></text>
    <path
       d="M 5.5928196,11.73137 C 5.1658981,11.688127 4.7686848,11.587944 4.4011795,11.43082 4.1474569,11.322343 3.761966,11.089855 3.5480759,10.915533 3.245236,10.668716 2.9832256,10.373864 2.7620447,10.030978 2.6124347,9.7990441 2.4151864,9.3952228 2.3223302,9.1353123 2.1549996,8.6669431 2.0528185,8.1470604 2.0157869,7.5756641 1.9979309,7.3001477 1.9978791,6.8518478 2.0158584,6.5763403 2.0526346,6.0127988 2.1533745,5.5042959 2.3180784,5.0508316 2.4122941,4.7914357 2.6132088,4.3892311 2.7650955,4.158808 2.9839505,3.8267891 3.2426456,3.5439844 3.5411807,3.3103939 3.7584767,3.1403693 4.1485979,2.9155779 4.4032288,2.8092546 4.7701488,2.6560441 5.1666646,2.5583257 5.5927761,2.5160993 5.8674655,2.4888784 6.3165135,2.4888796 6.59124,2.5157086 7.0200576,2.5575857 7.4168217,2.65494 7.7815324,2.8077714 8.0360194,2.9144138 8.4243049,3.142328 8.6409215,3.3132336 8.9393493,3.5486865 9.1980107,3.8309234 9.4169056,4.1599444 9.5697775,4.389726 9.7717061,4.7914361 9.865922,5.0508326 c 0.164704,0.4534642 0.265444,0.9619672 0.30222,1.5255087 0.01798,0.275507 0.01793,0.7238063 7.1e-5,0.9993225 C 10.131182,8.14706 10.029,8.6669428 9.8616699,9.135312 9.7688137,9.3952227 9.5715678,9.7990386 9.4219625,10.030966 c -0.2211798,0.342888 -0.4831892,0.63774 -0.786028,0.884559 -0.2138952,0.174327 -0.5987482,0.407987 -0.8523101,0.51679 -0.3652924,0.156747 -0.7627622,0.256564 -1.1924095,0.299452 -0.2746683,0.02742 -0.7237754,0.02742 -0.9983953,-3.97e-4 z M 6.5856829,9.936401 c 0.026935,-0.00792 0.053521,-0.016532 0.07976,-0.025842 C 6.9244771,9.8186537 7.2805779,9.5278565 7.4394486,9.3030808 7.4810068,9.2442828 7.5203138,9.1820418 7.5573695,9.1163576 7.6928684,8.8761752 7.8388325,8.4491913 7.8957656,8.1792151 7.9355619,7.9905016 7.9639626,7.7892531 7.9809678,7.5754695 8.0028567,7.3002893 8.0033821,6.8515394 7.9780677,6.5766571 7.961915,6.4012592 7.9368403,6.2352295 7.9028434,6.078568 7.844348,5.8090139 7.6895294,5.3843107 7.545306,5.1493638 7.5148532,5.0997547 7.4829191,5.0523241 7.4495035,5.007072 7.2860497,4.785719 6.9217312,4.504993 6.6614114,4.4167309 c -0.024789,-0.0084 -0.049887,-0.016212 -0.075295,-0.023423 -0.2648091,-0.07515 -0.723212,-0.074688 -0.9883528,-6.437e-4 -0.028912,0.00807 -0.05746,0.016904 -0.085644,0.026491 -0.2603443,0.088552 -0.6239727,0.3693676 -0.7846858,0.5927272 -0.03135,0.04357 -0.061416,0.089146 -0.090198,0.1367274 -0.1427024,0.23591 -0.2938029,0.6617741 -0.3493554,0.9319931 -0.032082,0.1560564 -0.055763,0.3213991 -0.071042,0.4960281 -0.024059,0.2749836 -0.023558,0.7236318 -0.00275,0.9989236 0.016105,0.2130856 0.042966,0.4137174 0.080582,0.6018955 0.054084,0.2705582 0.196549,0.6985351 0.3305927,0.9395603 0.035439,0.063723 0.072873,0.1242028 0.112303,0.1814401 0.1561588,0.226683 0.5115371,0.51745 0.7705896,0.6096143 0.0296,0.010531 0.059603,0.020195 0.090009,0.028992 0.2643895,0.076494 0.7234947,0.076963 0.9875195,-6.559e-4 z m 1.9829877,4.149328 C 8.2821932,14.059462 8.0098221,14.009963 7.751557,13.937229 7.4859314,13.862423 7.0717774,13.687351 6.8316432,13.55131 6.639879,13.442671 6.4600915,13.320794 6.2922808,13.185681 6.0773386,13.012619 5.768007,12.68627 5.6025242,12.465381 5.4831933,12.306097 5.3751266,12.13949 5.2783242,11.965562 5.1440928,11.724384 5.2826344,11.49263 5.5572678,11.463801 l 1.1774644,-0.123602 c 0.2746334,-0.02883 0.5759518,0.164238 0.7510431,0.376432 0.1167325,0.141468 0.4168475,0.372462 0.6699677,0.481201 0.1737826,0.07466 0.541346,0.170594 0.8156738,0.200013 0.1851024,0.01985 0.5625539,0.02472 0.8343442,-0.02218 0.023366,-0.004 0.258618,-0.03886 0.510239,-0.127665 l 0.26449,1.074493 c 0.066,0.268138 -0.08359,0.584658 -0.350607,0.653044 -0.117335,0.03005 -0.4339449,0.09383 -0.7090737,0.115494 -0.2494873,0.01965 -0.6772456,0.0199 -0.9521387,-0.0053 z M 12.488365,11.714568 C 12.175734,11.658602 11.910658,11.545935 11.693137,11.376569 11.476157,11.207623 11.22573,10.825604 11.120486,10.570785 10.99057,10.25623 10.907452,9.8937635 10.871133,9.4833848 10.846797,9.2084101 10.849992,8.7601427 10.849992,8.4840003 v -3.224 a 0.5,0.5 135 0 1 0.5,-0.5 h 1.136 a 0.5,0.5 45 0 1 0.5,0.5 v 2.96 c 0,0.2761424 -0.0091,0.7257275 0.03233,0.9984809 0.0405,0.2666588 0.318756,0.6577142 0.584547,0.7003709 0.09577,0.015369 0.411307,0.030166 0.66316,-0.078338 0.07088,-0.030538 0.314875,-0.189444 0.493054,-0.3990785 0.0929,-0.1092975 0.158906,-0.4292926 0.158906,-0.705435 l 0,-3.476 a 0.5,0.5 135 0 1 0.5,-0.5 h 1.136 a 0.5,0.5 45 0 1 0.5,0.5 V 11.088 a 0.5,0.5 135 0 1 -0.5,0.5 h -0.74 A 0.59023021,0.59023021 40.268839 0 1 15.231793,11.094803 0.35524993,0.35524993 74.62018 0 0 15.109992,10.652 c -0.399155,0.417114 -0.456932,0.467866 -0.515699,0.516213 -0.213051,0.175274 -0.601565,0.40831 -0.865556,0.486875 -0.07911,0.02354 -0.160854,0.04297 -0.245236,0.05827 -0.271347,0.04921 -0.723669,0.04981 -0.995136,0.0012 z m 8.12871,0.01302 c -0.286941,-0.03356 -0.560292,-0.09685 -0.820054,-0.189862 -0.259757,-0.09301 -0.656334,-0.307235 -0.874157,-0.476514 -0.203781,-0.158369 -0.387245,-0.340962 -0.55039,-0.547781 C 18.201587,10.296795 17.97781,9.9055848 17.880892,9.6473119 17.768596,9.348057 17.694918,9.0213632 17.659857,8.6672303 c -0.02719,-0.2746893 -0.02737,-0.7238646 0.0017,-0.9983435 0.0188,-0.1774816 0.04796,-0.3483673 0.08749,-0.5126571 0.06454,-0.2682532 0.234058,-0.6853079 0.371775,-0.9244456 0.05946,-0.1032425 0.12303,-0.2020939 0.19072,-0.2965541 0.160703,-0.2242576 0.476637,-0.5456464 0.697831,-0.7105547 0.07256,-0.054096 0.146762,-0.1047272 0.222605,-0.1518923 0.234255,-0.1456771 0.64946,-0.3219219 0.91686,-0.3897115 0.07621,-0.019321 0.152716,-0.035567 0.229513,-0.048739 0.271858,-0.046629 0.722651,-0.046969 0.996368,-0.011891 0.249729,0.032004 0.479829,0.089245 0.690302,0.1717214 0.256614,0.1005576 0.634134,0.3509812 0.830702,0.5443405 0.129487,0.1273731 0.245128,0.2680786 0.346924,0.4221166 0.15206,0.2300971 0.329975,0.6445172 0.404581,0.9101659 0.06328,0.2253195 0.107401,0.4619922 0.132364,0.7100183 0.02764,0.2746401 0.02951,0.7242678 -0.006,0.9979265 -0.003,0.022814 -0.0091,0.2181815 -0.06562,0.4252699 h -3.508 c -0.276142,0 -0.464826,0.2261057 -0.344379,0.473797 0.08089,0.1663518 0.321985,0.465031 0.55705,0.6074987 0.111818,0.06777 0.422886,0.190496 0.696491,0.222219 0.162007,0.01878 0.5215,0.02213 0.791423,-0.03382 0.124788,-0.02586 0.439127,-0.1226785 0.686812,-0.2441459 0.144372,-0.070802 0.364695,0.058482 0.498034,0.3002989 l 0.225138,0.408303 c 0.133339,0.241817 0.05931,0.56981 -0.184416,0.699238 -0.09512,0.05052 -0.192924,0.09763 -0.293397,0.141336 -0.253096,0.110103 -0.681988,0.24405 -0.952575,0.298509 -0.08929,0.01797 -0.177866,0.03287 -0.265714,0.04469 -0.273473,0.0368 -0.723258,0.03772 -0.997376,0.0057 z M 20.163984,7.4000003 h 1.328 c 0.276142,0 0.512839,-0.231212 0.427413,-0.4926002 -0.06708,-0.2052595 -0.324168,-0.5464415 -0.583151,-0.6267323 -0.225797,-0.070001 -0.658682,-0.064376 -0.9103,0.044574 -0.03689,0.015973 -0.278473,0.1298474 -0.452892,0.3410706 -0.03278,0.039694 -0.189868,0.261715 -0.262824,0.5265777 -0.03112,0.1129961 0.177612,0.2071105 0.453754,0.2071105 z m 6.219456,4.3236677 c -0.156536,-0.0216 -0.303018,-0.05403 -0.439448,-0.09729 -0.262542,-0.08324 -0.647856,-0.326111 -0.835087,-0.528175 -0.05569,-0.0601 -0.107675,-0.123571 -0.155966,-0.190421 -0.161354,-0.223364 -0.327749,-0.644589 -0.387452,-0.9139147 -0.03107,-0.1401742 -0.05456,-0.2864157 -0.07047,-0.4387244 -0.02867,-0.2745221 -0.02502,-0.7230002 -0.02502,-0.9991426 v -1.628 a 0.5,0.5 45 0 0 -0.5,-0.5 0.46356014,0.46356014 49.702055 0 1 -0.424,-0.5 v -0.584 a 0.5413521,0.5413521 132.72598 0 1 0.498426,-0.5396475 l 0.05915,-0.00471 A 0.6184739,0.6184739 136.49844 0 0 24.667654,4.2643292 L 24.77635,3.4436714 a 0.57059187,0.57059187 138.77246 0 1 0.565652,-0.4956711 l 0.764,0 a 0.5,0.5 45 0 1 0.5,0.5 v 0.812 a 0.5,0.5 45 0 0 0.5,0.5 h 0.608 a 0.5,0.5 45 0 1 0.5,0.5 l 0,0.668 a 0.5,0.5 135 0 1 -0.5,0.5 h -0.608 a 0.5,0.5 135 0 0 -0.5,0.5 l 0,1.604 c 0,0.2761424 -0.0172,0.7309263 0.06248,0.9943129 0.05875,0.1942309 0.348802,0.4966028 0.616519,0.5455228 0.100895,0.01844 0.338512,0.01927 0.521001,-0.01984 0.288,-0.096 0.288,-0.096 0.288,-0.096 l 0.229942,1.059378 c 0.05857,0.269858 -0.107742,0.555924 -0.376487,0.619121 -0.09121,0.02145 -0.384935,0.08714 -0.660076,0.107481 -0.223413,0.01651 -0.630605,0.01941 -0.903941,-0.01831 z m 4.230011,0 c -0.156536,-0.0216 -0.303018,-0.05403 -0.439448,-0.09729 -0.262542,-0.08324 -0.647856,-0.326111 -0.835087,-0.528175 -0.05569,-0.0601 -0.107675,-0.123571 -0.155966,-0.190421 -0.161354,-0.223364 -0.327749,-0.644589 -0.387452,-0.9139147 -0.03107,-0.1401742 -0.05456,-0.2864157 -0.07047,-0.4387244 -0.02867,-0.2745221 -0.02502,-0.7230002 -0.02502,-0.9991426 v -1.628 a 0.5,0.5 45 0 0 -0.5,-0.5 0.46356014,0.46356014 49.702055 0 1 -0.424,-0.5 v -0.584 a 0.5413521,0.5413521 132.72598 0 1 0.498426,-0.5396475 l 0.05915,-0.00471 a 0.6184739,0.6184739 136.49844 0 0 0.564078,-0.5353186 l 0.108696,-0.8206578 a 0.57059187,0.57059187 138.77246 0 1 0.565652,-0.4956711 l 0.764,0 a 0.5,0.5 45 0 1 0.5,0.5 v 0.812 a 0.5,0.5 45 0 0 0.5,0.5 h 0.608 a 0.5,0.5 45 0 1 0.5,0.5 v 0.668 a 0.5,0.5 135 0 1 -0.5,0.5 h -0.608 a 0.5,0.5 135 0 0 -0.5,0.5 l 0,1.604 c 0,0.2761424 -0.0172,0.7309263 0.06248,0.9943129 0.05876,0.1942309 0.348802,0.4966028 0.616519,0.5455228 0.100895,0.01844 0.338512,0.01927 0.521001,-0.01984 0.288,-0.096 0.288,-0.096 0.288,-0.096 l 0.229942,1.059378 c 0.05857,0.269858 -0.107742,0.555924 -0.376487,0.619121 -0.09121,0.02145 -0.384935,0.08714 -0.660076,0.107481 -0.223413,0.01651 -0.630605,0.01941 -0.903941,-0.01831 z m 3.259879,-0.01681 c -0.04248,-0.0089 -0.08421,-0.01911 -0.125196,-0.03049 -0.26524,-0.07367 -0.654497,-0.3121 -0.8454,-0.510689 -0.01099,-0.01143 -0.02183,-0.02298 -0.03253,-0.03466 -0.186043,-0.203107 -0.394706,-0.607695 -0.460424,-0.875313 -0.0064,-0.02618 -0.0124,-0.05253 -0.01792,-0.07903 -0.05616,-0.2699043 -0.05776,-0.7240634 0.0032,-0.9928054 0.07498,-0.3305912 0.229427,-0.6187971 0.463349,-0.8646175 0.190007,-0.199671 0.56923,-0.4470284 0.819363,-0.5633117 0.496425,-0.2307805 1.149813,-0.4046402 1.960165,-0.521579 0.273298,-0.039439 0.495733,-0.2962953 0.364071,-0.5303621 -0.336,-0.3 -0.336,-0.3 -0.336,-0.3 -0.528489,-0.1081897 -0.790776,-0.1117273 -1.059903,-0.052357 -0.193313,0.042646 -0.555406,0.1757486 -0.80523,0.2931725 -0.01439,0.00676 -0.02883,0.013615 -0.04333,0.020558 -0.24902,0.1192348 -0.548354,0.032825 -0.677653,-0.211176 L 32.804125,5.9338024 c -0.129299,-0.2440006 -0.0434,-0.5596994 0.202422,-0.6853725 0.01093,-0.00559 0.02187,-0.011142 0.03281,-0.016661 0.246501,-0.1243128 0.660217,-0.2978276 0.923066,-0.3821603 0.01075,-0.00345 0.0215,-0.00686 0.03226,-0.01024 0.26337,-0.082681 0.701252,-0.1822272 0.975265,-0.2152313 0.01367,-0.00165 0.02736,-0.00323 0.04106,-0.00475 0.274319,-0.030445 0.723918,-0.031855 0.997839,0.00172 0.192067,0.023545 0.372402,0.061373 0.541005,0.1134845 0.263377,0.081404 0.662716,0.2975823 0.865593,0.4839301 0.101184,0.09294 0.193788,0.1966035 0.277814,0.3109906 0.163218,0.2221932 0.351348,0.6334593 0.424669,0.8993317 0.06519,0.236385 0.10942,0.4976087 0.132693,0.7836712 0.02239,0.2751545 0.01938,0.7233391 0.01938,0.9994815 V 11.088 a 0.5,0.5 135 0 1 -0.5,0.5 h -0.74 A 0.61622336,0.61622336 39.055671 0 1 36.427003,11.098725 0.17407265,0.17407265 62.586353 0 0 36.326008,10.904 c -0.421061,0.327743 -0.449193,0.346655 -0.477531,0.365191 -0.230948,0.15106 -0.635146,0.353317 -0.902764,0.419035 -0.02618,0.0064 -0.05253,0.0124 -0.07903,0.01792 -0.269904,0.05616 -0.72362,0.05751 -0.993353,7.19e-4 z m 1.713955,-1.7085758 c 0.04454,-0.021271 0.27424,-0.1583399 0.467607,-0.3544579 0.0447,-0.045333 0.07912,-0.3076846 0.07912,-0.583827 v -0.092 c 0,-0.2761424 -0.222942,-0.475172 -0.493394,-0.4197209 -0.02842,0.00583 -0.05633,0.011799 -0.0837,0.017913 -0.269211,0.06012 -0.700444,0.2113933 -0.913219,0.3858174 -0.07058,0.057856 -0.273682,0.3000784 -0.273683,0.5599904 0.190999,0.4432507 0.392091,0.5739597 0.664209,0.5864727 0.03741,0.0017 0.305968,0.01783 0.553068,-0.1001878 z M 39.332019,11.088 V 3.1480003 a 0.5,0.5 135 0 1 0.5,-0.5 l 2.144,0 c 0.276142,0 0.724261,-0.00242 0.99953,0.018659 0.281425,0.021549 0.550677,0.061763 0.807756,0.1206429 0.26905,0.061621 0.697358,0.2009302 0.941463,0.3293082 0.181753,0.095586 0.347217,0.2092072 0.496391,0.3408628 0.206696,0.1824221 0.481367,0.5439554 0.592351,0.7960644 0.104662,0.2377482 0.174878,0.5082617 0.210649,0.8115405 0.03233,0.2740766 0.03236,0.7238971 -0.0021,0.9976946 -0.0372,0.2952731 -0.109011,0.5643789 -0.215429,0.8073174 -0.110595,0.2524727 -0.373952,0.6206215 -0.571329,0.8132257 -0.15356,0.1498454 -0.324192,0.2813532 -0.511897,0.3945232 -0.23624,0.1424322 -0.65475,0.3087861 -0.920979,0.3815232 -0.25024,0.068369 -0.509943,0.1154439 -0.779111,0.1412258 -0.274781,0.026319 -0.723121,0.023412 -0.999263,0.023412 l -0.044,0 a 0.5,0.5 135 0 0 -0.5,0.5 V 11.088 a 0.5,0.5 135 0 1 -0.5,0.5 h -1.148 a 0.5,0.5 45 0 1 -0.5,-0.5 z m 2.648,-4.1559997 c 0.2408,0 0.66255,0.00882 0.933452,-0.042623 0.08322,-0.015803 0.161449,-0.035999 0.234674,-0.06059 0.259902,-0.087282 0.608496,-0.4009247 0.710327,-0.6552054 0.01494,-0.037297 0.02829,-0.075832 0.04005,-0.1156058 0.07806,-0.2638987 0.08278,-0.726844 -0.0085,-0.9861049 -0.0083,-0.023651 -0.01735,-0.04662 -0.02708,-0.068906 C 43.754216,4.753793 43.35307,4.4997464 43.08685,4.4316884 43.013803,4.4130142 42.936332,4.3976221 42.854438,4.3855121 42.581515,4.3451541 42.132161,4.3520003 41.856019,4.3520003 a 0.44236636,0.44236636 126.94317 0 0 -0.376,0.5 v 1.58 a 0.5,0.5 45 0 0 0.5,0.5 z m 6.124291,4.7834457 c -0.07489,-0.01329 -0.146509,-0.02984 -0.214866,-0.04965 -0.264052,-0.07654 -0.643315,-0.337928 -0.804725,-0.560489 -0.0098,-0.01349 -0.01938,-0.02717 -0.02878,-0.04103 -0.15455,-0.227799 -0.291285,-0.661277 -0.337656,-0.933225 -0.01458,-0.08549 -0.02651,-0.1734515 -0.0358,-0.2638798 -0.0282,-0.2745709 -0.02446,-0.7230285 -0.02446,-0.9991709 v -6.368 a 0.5,0.5 135 0 1 0.5,-0.5 h 1.136 a 0.5,0.5 45 0 1 0.5,0.5 v 6.44 c 0,0.2761424 -0.05949,0.7705588 0.12,0.968 0.252,0.1199997 0.252,0.1199997 0.252,0.1199997 h 0.108 c 0.132,-0.024 0.132,-0.024 0.132,-0.024 l 0.172858,1.078303 c 0.04371,0.272661 -0.109229,0.569401 -0.352858,0.613697 -0.566609,0.06026 -0.850163,0.06762 -1.121712,0.01945 z m 4.384812,0.01214 C 52.202181,11.694023 51.92883,11.630736 51.669068,11.537722 51.409311,11.44471 51.012734,11.230487 50.794911,11.061208 50.59113,10.902839 50.407666,10.720246 50.244521,10.513427 50.073634,10.296795 49.849857,9.9055848 49.752939,9.6473119 49.640643,9.348057 49.566965,9.0213632 49.531904,8.6672303 c -0.02719,-0.2746893 -0.02737,-0.7238646 0.0017,-0.9983435 0.0188,-0.1774816 0.04796,-0.3483673 0.08749,-0.5126571 0.06454,-0.2682532 0.234058,-0.6853079 0.371775,-0.9244456 0.05946,-0.1032425 0.12303,-0.2020939 0.19072,-0.2965541 0.160703,-0.2242576 0.476637,-0.5456464 0.697831,-0.7105547 0.07256,-0.054096 0.146762,-0.1047272 0.222605,-0.1518923 0.234255,-0.1456771 0.64946,-0.3219219 0.91686,-0.3897115 0.07621,-0.019321 0.152716,-0.035567 0.229513,-0.048739 0.271858,-0.046629 0.722651,-0.046969 0.996368,-0.011891 0.249729,0.032004 0.479829,0.089245 0.690302,0.1717214 0.256614,0.1005576 0.634134,0.3509812 0.830702,0.5443405 0.129487,0.1273731 0.245128,0.2680786 0.346924,0.4221166 0.15206,0.2300971 0.329975,0.6445172 0.404581,0.9101659 0.06328,0.2253195 0.107401,0.4619922 0.132364,0.7100183 0.02764,0.2746401 0.02952,0.7242678 -0.006,0.9979265 -0.003,0.022814 -0.0091,0.2181815 -0.06562,0.4252699 h -3.508 c -0.276142,0 -0.464826,0.2261057 -0.344379,0.473797 0.08089,0.1663518 0.321985,0.465031 0.55705,0.6074987 0.111818,0.06777 0.422886,0.190496 0.696491,0.222219 0.162007,0.01878 0.5215,0.02213 0.791423,-0.03382 0.124788,-0.02586 0.439127,-0.1226785 0.686812,-0.2441459 0.144372,-0.070802 0.364695,0.058482 0.498034,0.3002989 l 0.225138,0.408303 c 0.133339,0.241817 0.05931,0.56981 -0.184416,0.699238 -0.09513,0.05052 -0.192924,0.09763 -0.293397,0.141336 -0.253096,0.110103 -0.681988,0.24405 -0.952575,0.298509 -0.08929,0.01797 -0.177866,0.03287 -0.265714,0.04469 -0.273473,0.0368 -0.723258,0.03772 -0.997376,0.0057 z M 52.036031,7.4000003 h 1.328 c 0.276142,0 0.512839,-0.231212 0.427413,-0.4926002 -0.06708,-0.2052595 -0.324168,-0.5464415 -0.583151,-0.6267323 -0.225797,-0.070001 -0.658682,-0.064376 -0.9103,0.044574 -0.03689,0.015973 -0.278473,0.1298474 -0.452892,0.3410706 -0.03278,0.039694 -0.189868,0.261715 -0.262824,0.5265777 -0.03112,0.1129961 0.177612,0.2071105 0.453754,0.2071105 z m 3.515386,3.7569577 1.581234,-2.6899158 a 0.84137267,0.84137267 89.727008 0 0 -0.0041,-0.8596498 L 55.675513,5.1886082 a 0.28291743,0.28291743 119.50269 0 1 0.242521,-0.4286079 h 1.292 a 0.83841247,0.83841247 30.810378 0 1 0.737653,0.4399104 l 0.08869,0.1641792 c 0.131252,0.2429558 0.327258,0.6450984 0.444784,0.8949747 0.03772,0.080198 0.168981,0.34516 0.292476,0.5921493 a 0.17028854,0.17028854 45.994103 0 0 0.124393,0.1287864 c 0.196069,-0.5283788 0.299847,-0.7836162 0.395414,-1.0426853 0.02712,-0.073525 0.132136,-0.3409962 0.2352,-0.5971844 L 59.57542,5.22387 a 0.74009385,0.74009385 145.95743 0 1 0.686614,-0.4638697 h 1.208 a 0.29313178,0.29313178 59.618458 0 1 0.255789,0.4363038 l -1.479578,2.6433924 a 0.84099763,0.84099763 88.504078 0 0 0.02244,0.8592666 l 1.5547,2.4660739 A 0.27585112,0.27585112 118.88562 0 1 61.590034,11.588 l -1.292,0 A 0.86634606,0.86634606 29.990816 0 1 59.547895,11.155067 L 59.424173,10.940933 C 59.286025,10.70183 59.067148,10.311296 58.938757,10.066818 58.896218,9.9858168 58.766948,9.7169096 58.629178,9.4776647 58.586364,9.4033171 58.523171,9.3440003 58.490034,9.3440003 c -0.228787,0.5232582 -0.337798,0.7827807 -0.447982,1.0359847 -0.03079,0.07077 -0.145025,0.333417 -0.254822,0.586793 l -0.07039,0.162444 A 0.76159276,0.76159276 146.71435 0 1 57.018034,11.588 h -1.22 a 0.28607101,0.28607101 60.224313 0 1 -0.246617,-0.431042 z"
       id="text8"
       style="-inkscape-font-specification:'Noto Sans JP Heavy';fill:url(#linearGradient19);fill-opacity:1;stroke:none;stroke-linecap:round;stroke-linejoin:round"
       aria-label="QuettaPlex"
       transform="matrix(1.0022802,0,0,0.9913053,-0.0069502,1.0173891)" />
  </g>
</svg>
